Genre:Drama | Thriller
 Language:English
 IMDb:http://www.imdb.com/title/tt1372686/
 Source: BluRay x264-SPARKS Thanks!
 Encoder:Tony
 
Format : MPEG-4
 Format profile : Base Media
 Codec ID : isom
 File size : 2.88 GiB
 Duration : 2h 3mn
 Overall bit rate mode : Variable
 Overall bit rate : 3 343 Kbps
 
Video
 ID : 1
 Format : AVC
 Format/Info : Advanced Video Codec
 Format profile : High@L5.1
 Format settings, CABAC : Yes
 Format settings, ReFrames : 3 frames
 Codec ID : avc1
 Codec ID/Info : Advanced Video Coding
 Duration : 2h 3mn
 Bit rate : 3 000 Kbps
 Maximum bit rate : 28.4 Mbps
 Width : 1 280 pixels
 Height : 544 pixels
 Display aspect ratio : 2.35:1
 Frame rate mode : Constant
 Frame rate : 23.976 fps
 Color space : YUV
 Chroma subsampling : 4:2:0
 Bit depth : 8 bits
 Scan type : Progressive
 Bits/(Pixel*Frame) : 0.180
 Stream size : 2.52 GiB (87%)
 Writing library : x264
 
Audio
 ID : 2
 Format : AAC
 Format/Info : Advanced Audio Codec
 Format profile : LC
 Codec ID : 40
 Duration : 2h 3mn
 Bit rate mode : Variable
 Bit rate : 419 Kbps
 Maximum bit rate : 565 Kbps
 Channel(s) : 6 channels
 Channel positions : Front: L C R, Side: L R, LFE
 Sampling rate : 48.0 KHz
 Compression mode : Lossy
 Stream size : 370 MiB (13%)
 

Plot:
 A banished hero of Rome allies with a sworn enemy to take his revenge on the city.
 
